<svg width="14" height="14" viewBox="0 0 14 14" fill="none" xmlns="http://www.w3.org/2000/svg">
<path d="M11.7502 9.85031C11.7206 9.89974 11.6815 9.94283 11.6353 9.97713C11.589 10.0114 11.5364 10.0362 11.4805 10.0502C11.4246 10.0641 11.3665 10.0668 11.3096 10.0583C11.2526 10.0497 11.1979 10.0299 11.1486 10.0002L7.43751 7.77273V11.8125C7.43751 11.9285 7.39141 12.0398 7.30937 12.1219C7.22732 12.2039 7.11604 12.25 7.00001 12.25C6.88397 12.25 6.77269 12.2039 6.69065 12.1219C6.6086 12.0398 6.56251 11.9285 6.56251 11.8125V7.77273L2.85032 10.0002C2.80103 10.0304 2.74623 10.0506 2.68909 10.0596C2.63194 10.0686 2.57359 10.0661 2.5174 10.0524C2.46121 10.0386 2.40831 10.0139 2.36174 9.97957C2.31518 9.94525 2.27588 9.90204 2.24613 9.85243C2.21638 9.80283 2.19675 9.74782 2.1884 9.69058C2.18004 9.63335 2.18312 9.57502 2.19745 9.51898C2.21178 9.46294 2.23708 9.4103 2.27189 9.3641C2.3067 9.31791 2.35033 9.27907 2.40024 9.24984L6.14962 7L2.40024 4.75016C2.35033 4.72093 2.3067 4.68209 2.27189 4.6359C2.23708 4.5897 2.21178 4.53706 2.19745 4.48102C2.18312 4.42498 2.18004 4.36665 2.1884 4.30942C2.19675 4.25218 2.21638 4.19717 2.24613 4.14757C2.27588 4.09796 2.31518 4.05475 2.36174 4.02043C2.40831 3.98612 2.46121 3.96137 2.5174 3.94763C2.57359 3.9339 2.63194 3.93144 2.68909 3.9404C2.74623 3.94936 2.80103 3.96957 2.85032 3.99984L6.56251 6.22727V2.1875C6.56251 2.07147 6.6086 1.96019 6.69065 1.87814C6.77269 1.79609 6.88397 1.75 7.00001 1.75C7.11604 1.75 7.22732 1.79609 7.30937 1.87814C7.39141 1.96019 7.43751 2.07147 7.43751 2.1875V6.22727L11.1497 3.99984C11.199 3.96957 11.2538 3.94936 11.3109 3.9404C11.3681 3.93144 11.4264 3.9339 11.4826 3.94763C11.5388 3.96137 11.5917 3.98612 11.6383 4.02043C11.6848 4.05475 11.7241 4.09796 11.7539 4.14757C11.7836 4.19717 11.8033 4.25218 11.8116 4.30942C11.82 4.36665 11.8169 4.42498 11.8026 4.48102C11.7882 4.53706 11.7629 4.5897 11.7281 4.6359C11.6933 4.68209 11.6497 4.72093 11.5998 4.75016L7.8504 7L11.5998 9.24984C11.6491 9.27938 11.6921 9.31834 11.7264 9.36451C11.7606 9.41068 11.7854 9.46314 11.7994 9.51891C11.8134 9.57468 11.8162 9.63265 11.8078 9.68951C11.7993 9.74638 11.7797 9.80102 11.7502 9.85031Z" fill="#0E1AE1"/>
</svg>
