<svg width="16" height="16" viewBox="0 0 16 16" fill="none" xmlns="http://www.w3.org/2000/svg">
<path d="M13.4287 10.3512C13.3949 10.4077 13.3503 10.457 13.2974 10.4962C13.2445 10.5354 13.1844 10.5637 13.1205 10.5797C13.0566 10.5956 12.9903 10.5987 12.9252 10.5889C12.8601 10.5791 12.7976 10.5565 12.7412 10.5225L8.49996 7.97688V12.5938C8.49996 12.7264 8.44728 12.8535 8.35351 12.9473C8.25974 13.0411 8.13256 13.0938 7.99996 13.0938C7.86735 13.0938 7.74017 13.0411 7.6464 12.9473C7.55263 12.8535 7.49996 12.7264 7.49996 12.5938V7.97688L3.25745 10.5225C3.20113 10.5571 3.1385 10.5802 3.07319 10.5904C3.00788 10.6007 2.94119 10.5979 2.87698 10.5822C2.81276 10.5665 2.7523 10.5382 2.69908 10.499C2.64587 10.4597 2.60096 10.4104 2.56695 10.3537C2.53295 10.297 2.51052 10.2341 2.50097 10.1687C2.49142 10.1033 2.49494 10.0366 2.51132 9.97259C2.5277 9.90854 2.55661 9.84838 2.5964 9.79558C2.63618 9.74279 2.68603 9.6984 2.74308 9.665L7.02808 7.09375L2.74308 4.5225C2.68603 4.4891 2.63618 4.44471 2.5964 4.39192C2.55661 4.33912 2.5277 4.27896 2.51132 4.21491C2.49494 4.15087 2.49142 4.08421 2.50097 4.0188C2.51052 3.95338 2.53295 3.89051 2.56695 3.83382C2.60096 3.77714 2.64587 3.72775 2.69908 3.68853C2.7523 3.64931 2.81276 3.62103 2.87698 3.60533C2.94119 3.58963 3.00788 3.58682 3.07319 3.59706C3.1385 3.60731 3.20113 3.6304 3.25745 3.665L7.49996 6.21063V1.59375C7.49996 1.46114 7.55263 1.33396 7.6464 1.2402C7.74017 1.14643 7.86735 1.09375 7.99996 1.09375C8.13256 1.09375 8.25974 1.14643 8.35351 1.2402C8.44728 1.33396 8.49996 1.46114 8.49996 1.59375V6.21063L12.7425 3.665C12.7988 3.6304 12.8614 3.60731 12.9267 3.59706C12.992 3.58682 13.0587 3.58963 13.1229 3.60533C13.1871 3.62103 13.2476 3.64931 13.3008 3.68853C13.354 3.72775 13.399 3.77714 13.433 3.83382C13.467 3.89051 13.4894 3.95338 13.4989 4.0188C13.5085 4.08421 13.505 4.15087 13.4886 4.21491C13.4722 4.27896 13.4433 4.33912 13.4035 4.39192C13.3637 4.44471 13.3139 4.4891 13.2568 4.5225L8.97183 7.09375L13.2568 9.665C13.3132 9.69875 13.3624 9.74328 13.4015 9.79605C13.4407 9.84881 13.469 9.90877 13.485 9.9725C13.501 10.0362 13.5042 10.1025 13.4945 10.1675C13.4849 10.2325 13.4625 10.2949 13.4287 10.3512Z" fill="#2C2C2C"/>
</svg>
